<?xml version="1.0" ?><svg id="Layer_1_1_" style="enable-background:new 0 0 64 64;" version="1.1" viewBox="0 0 64 64" xml:space="preserve" xmlns="http://www.w3.org/2000/svg" xmlns:xlink="http://www.w3.org/1999/xlink"><path d="M23,8.148V7c0-1.105-0.895-2-2-2h-6c-1.105,0-2,0.895-2,2v9h10v-3.702c2.42-0.7,6.29-1.48,11-1c1.45,0.15,2.79,0.4,4,0.7  v-4.15c-1.21-0.3-2.55-0.55-4-0.7C29.29,6.668,25.42,7.448,23,8.148z"/><rect height="2" width="4" x="46" y="11"/><rect height="2" width="4" x="52" y="11"/><rect height="2" width="4" x="58" y="11"/><rect height="4.001" transform="matrix(0.2588 -0.9659 0.9659 0.2588 17.3279 57.6158)" width="2" x="45.205" y="15.517"/><rect height="4" transform="matrix(0.2588 -0.9659 0.9659 0.2588 20.121 64.3627)" width="2" x="51" y="17.071"/><rect height="4.001" transform="matrix(0.2588 -0.9659 0.9659 0.2588 22.9198 71.1137)" width="2" x="56.796" y="18.623"/><rect height="2" transform="matrix(0.9659 -0.2588 0.2588 0.9659 -0.1038 12.1765)" width="4.001" x="44.204" y="5.483"/><rect height="2" transform="matrix(0.9659 -0.2588 0.2588 0.9659 0.4959 13.6265)" width="4" x="50" y="3.93"/><rect height="2" transform="matrix(0.9659 -0.2588 0.2588 0.9659 1.0946 15.0699)" width="4.001" x="55.795" y="2.377"/><circle cx="55" cy="32.5" r="3.5"/><path d="M58,36h-3h-3c-1.657,0-3,1.343-3,3v8l2,3v12h8V50l2-3v-8C61,37.343,59.657,36,58,36z"/><path d="M47.876,27.811c-1.988-0.88-2.807-1.699-3.687-3.687c-0.073-0.165-0.305-0.165-0.378,0c-0.88,1.988-1.699,2.807-3.687,3.687  c-0.165,0.073-0.165,0.305,0,0.378c1.988,0.88,2.807,1.699,3.687,3.687c0.073,0.165,0.305,0.165,0.378,0  c0.88-1.988,1.699-2.807,3.687-3.687C48.041,28.116,48.041,27.884,47.876,27.811z"/><path d="M26,23h-1v-5H11v5h-1c-4.418,0-8,3.582-8,8v31h32V31C34,26.582,30.418,23,26,23z M18,55c-6.627,0-12-5.373-12-12  c0-2.773,0.949-5.318,2.529-7.35l5.057,5.057c-0.213,0.405-0.391,0.831-0.485,1.293H12c-0.552,0-1,0.448-1,1v0c0,0.552,0.448,1,1,1  h1.101c0.13,0.637,0.384,1.229,0.732,1.753l-0.783,0.783c-0.391,0.39-0.391,1.024,0,1.414c0.39,0.39,1.023,0.391,1.414,0  l0.783-0.783c0.524,0.348,1.116,0.602,1.753,0.732V49c0,0.552,0.448,1,1,1h0c0.552,0,1-0.448,1-1v-1.101  c0.461-0.094,0.887-0.272,1.293-0.485l5.057,5.057C23.318,54.05,20.773,55,18,55z M15.5,44c0-0.374,0.214-0.688,0.519-0.86  l1.341,1.341C17.188,44.785,16.874,45,16.5,45C15.948,45,15.5,44.552,15.5,44z M18.64,41.519C18.812,41.214,19.126,41,19.5,41  c0.552,0,1,0.448,1,1c0,0.374-0.214,0.688-0.519,0.86L18.64,41.519z M27.471,50.35l-5.057-5.057  c0.213-0.405,0.391-0.831,0.485-1.293H24c0.552,0,1-0.448,1-1v0c0-0.552-0.448-1-1-1h-1.101c-0.13-0.637-0.384-1.229-0.732-1.753  l0.783-0.783c0.391-0.391,0.391-1.024,0-1.414c-0.39-0.39-1.023-0.391-1.414,0l-0.783,0.783c-0.524-0.348-1.116-0.602-1.753-0.732  V37c0-0.552-0.448-1-1-1h0c-0.552,0-1,0.448-1,1v1.101c-0.461,0.094-0.887,0.272-1.293,0.485l-5.057-5.057  C12.682,31.949,15.227,31,18,31c6.627,0,12,5.373,12,12C30,45.773,29.051,48.318,27.471,50.35z"/></svg>