<?xml version="1.0" ?><svg id="outine" viewBox="0 0 48 48" xmlns="http://www.w3.org/2000/svg"><title/><path d="M17.277,14.449h-.813V8.809a.752.752,0,0,0-.752-.752H14.168V4.5h.788a.752.752,0,0,0,.752-.752v-3A.752.752,0,0,0,14.956,0H6.1A6.08,6.08,0,0,0,1.29,2.184a.754.754,0,0,0-.008.878l.88,1.248a.76.76,0,0,0,.977.224,6.121,6.121,0,0,1,4.323-.059.777.777,0,0,0,.2.028h.788V8.057H6.909a.752.752,0,0,0-.752.752v5.64H5.344a4.187,4.187,0,0,0-4.182,4.183V43.82A4.187,4.187,0,0,0,5.344,48H17.277A4.187,4.187,0,0,0,21.46,43.82V18.632A4.187,4.187,0,0,0,17.277,14.449ZM14.2,3H8.417V1.5H14.2ZM3.049,2.958l-.186-.264A4.747,4.747,0,0,1,6.1,1.5h.816v1.3A7.909,7.909,0,0,0,3.049,2.958ZM9.957,4.5h2.707V8.057H9.957Zm10,39.317A2.681,2.681,0,0,1,17.277,46.5H5.344A2.681,2.681,0,0,1,2.666,43.82V18.632a2.681,2.681,0,0,1,2.678-2.679H8.29a.752.752,0,0,0,0-1.5H7.661V9.561h7.3v4.888H10.77a.752.752,0,0,0,0,1.5h6.507a2.681,2.681,0,0,1,2.679,2.679Z"/><path d="M16.863,28.546H14.308V25.991a.752.752,0,0,0-.752-.752H9.065a.752.752,0,0,0-.752.752v2.555H5.758a.752.752,0,0,0-.752.752v4.491a.752.752,0,0,0,.752.752H8.313V37.1a.752.752,0,0,0,.752.752h4.491a.752.752,0,0,0,.752-.752V34.541h2.555a.752.752,0,0,0,.752-.752V29.3A.752.752,0,0,0,16.863,28.546Zm-.752,4.491H13.556a.752.752,0,0,0-.752.752v2.556H9.817V33.789a.752.752,0,0,0-.752-.752H6.51V30.05H9.065a.752.752,0,0,0,.752-.752V26.743H12.8V29.3a.752.752,0,0,0,.752.752h2.555Z"/><path d="M43.8,29.027,37.379,21.3a7.073,7.073,0,0,1-1.63-4.511V12.057a.75.75,0,0,0-.75-.75H33.875V9.5h2.216a.748.748,0,0,0,.611-.315l1.133-1.6a8.685,8.685,0,0,0,.983,3.5,7.662,7.662,0,0,0,4.4,3.073.725.725,0,0,0,.173.021.75.75,0,0,0,.6-1.2A10.25,10.25,0,0,1,42.114,7.9V4.573h3.3a.75.75,0,0,0,.75-.75V.75a.75.75,0,0,0-.75-.75H29.836a4.419,4.419,0,0,0-4.415,4.415V8.75a.75.75,0,0,0,.75.75h1.392v1.807H26.205a.75.75,0,0,0-.75.75v6.4a.75.75,0,0,0,1.5,0V12.807h7.294V16.79a8.58,8.58,0,0,0,1.976,5.47l6.421,7.726a11.752,11.752,0,0,1,2.708,7.494v6.251a2.773,2.773,0,0,1-2.77,2.769H29.724a2.772,2.772,0,0,1-2.769-2.769V20.94a.75.75,0,1,0-1.5,0V43.731A4.274,4.274,0,0,0,29.724,48h12.86a4.275,4.275,0,0,0,4.27-4.269V37.48A13.255,13.255,0,0,0,43.8,29.027ZM40.1,10.306a9.494,9.494,0,0,1-.847-4.214h1.361V7.9a9.532,9.532,0,0,0,.973,3.9A4.868,4.868,0,0,1,40.1,10.306Zm4.562-7.233H42.114V1.5h2.548ZM26.921,4.415A2.919,2.919,0,0,1,29.836,1.5H40.614V4.592h-2.1a.751.751,0,0,0-.612.315L35.7,8H26.921ZM29.063,9.5h3.312v1.807H29.063Z"/><path d="M36.953,29.088H32.771a.75.75,0,0,0-.75.75v2.33h-2.33a.75.75,0,0,0-.75.75V37.1a.75.75,0,0,0,.75.75h2.33v2.33a.75.75,0,0,0,.75.75h4.182a.75.75,0,0,0,.75-.75V37.85h2.33a.75.75,0,0,0,.75-.75V32.918a.75.75,0,0,0-.75-.75H37.7v-2.33A.75.75,0,0,0,36.953,29.088Zm2.33,4.58V36.35h-2.33a.75.75,0,0,0-.75.75v2.33H33.521V37.1a.75.75,0,0,0-.75-.75h-2.33V33.668h2.33a.75.75,0,0,0,.75-.75v-2.33H36.2v2.33a.75.75,0,0,0,.75.75Z"/></svg>