<?xml version="1.0" ?><!DOCTYPE svg  PUBLIC '-//W3C//DTD SVG 1.1//EN'  'http://www.w3.org/Graphics/SVG/1.1/DTD/svg11.dtd'><svg enable-background="new 0 0 512 512" height="512px" version="1.1" viewBox="0 0 512 512" width="512px" xml:space="preserve" xmlns="http://www.w3.org/2000/svg" xmlns:xlink="http://www.w3.org/1999/xlink"><g id="Layer_23"><path d="M478.1,23.824c-4.604-3.183-12.541,0.327-17.777,7.845L243.1,344.623l-23.001-15.969l-17.451,25.123   c-21.031,1.265-41.893,13.548-63.721,23.272c-2.728,1.22-21.523,4.853-23.412,5.964c36.267,10.098,86.551,5.602,86.551,5.602   c-41.391,18.229-74.143,9.435-97.694-5.831c-37.862-7.595-87.926-34.635-69.76,3.548c23.556,49.51,54.087,77.683,85.127,92.135   c41.531,4.956,78.536-20.81,78.536-20.81c-17.619,23.656-38.956,29.507-57.334,28.644c54.822,15.255,106.541-7.241,119.024-25.231   c13.313-19.168,14.273-43.512,4.816-64.706l17.182-24.759l-22.209-15.419L476.967,43.213   C482.186,35.706,482.684,27.027,478.1,23.824z M30.79,372.86l105.548,51.062C75.049,450.887,30.79,372.86,30.79,372.86z"/></g></svg>