<?xml version="1.0" ?><svg viewBox="0 0 64 64" xmlns="http://www.w3.org/2000/svg"><g id="Time_management"><path d="M28.8581,16.83a4.4509,4.4509,0,0,1-4.3532-3.53,22.0106,22.0106,0,1,0,22.3611,4.472,4.4067,4.4067,0,0,1-.5523-5.917,26.2856,26.2856,0,0,0-9.3459-3.74,4.4238,4.4238,0,0,1-.8479,2.0607l-3.7161,4.8946A4.4741,4.4741,0,0,1,28.8581,16.83ZM15.6511,35.6547a1.35,1.35,0,0,1,0-2.6992h2.5381a1.35,1.35,0,0,1,0,2.6992Zm6.9326,9.8194L20.7888,47.268a1.35,1.35,0,1,1-1.9082-1.91l1.7949-1.794a1.35,1.35,0,0,1,1.9082,1.91Zm.5674-20.1358a1.3508,1.3508,0,0,1-1.9092-.001L19.448,23.5424a1.35,1.35,0,1,1,1.91-1.9082l1.794,1.7949A1.3506,1.3506,0,0,1,23.1511,25.3383ZM33.3747,51.4829a1.35,1.35,0,1,1-2.6992,0V48.9448a1.35,1.35,0,1,1,2.6992,0ZM48.7165,32.9555a1.35,1.35,0,0,1,0,2.6992h-2.538a1.35,1.35,0,1,1,0-2.6992Zm-7.2236-10.21,1.7949-1.7939a1.35,1.35,0,1,1,1.9082,1.91l-1.7949,1.7939a1.35,1.35,0,1,1-1.9082-1.91Zm-.459,20.4737a1.3545,1.3545,0,0,1,1.91,0l1.7949,1.7949a1.3507,1.3507,0,0,1-1.91,1.91l-1.7949-1.795A1.3527,1.3527,0,0,1,41.0339,43.2192ZM33.3747,21.9067V32.1518l3.0782-2.9531a1.35,1.35,0,1,1,1.8691,1.9472L32.96,36.2924a1.3492,1.3492,0,0,1-2.2842-.9736V21.9067a1.35,1.35,0,0,1,2.6992,0Z"/><path d="M51.0554,13.2016a1.75,1.75,0,0,0-2.3652,2.58A24.7,24.7,0,1,1,28.8586,9.487l-1.393,1.8347a1.75,1.75,0,0,0,2.7871,2.1172L33.97,8.5434a1.7508,1.7508,0,0,0-.1807-2.32L29.3572,1.9643a1.75,1.75,0,0,0-2.4258,2.5234l1.5762,1.5149a28.2113,28.2113,0,1,0,22.5478,7.199Z"/></g></svg>