<?xml version="1.0" ?><svg viewBox="0 0 100 100" xmlns="http://www.w3.org/2000/svg"><title/><g data-name="Layer 2" id="Layer_2"><path d="M56.81,95l-.11-2c6.05-.65,6.75-2,6.83-2.27.16-.54-.58-1.28-.79-1.44-7.07-5-10.63-3.24-15.55-.83a32,32,0,0,1-9.45,3.33c-6.06,1-14.83-2.44-19-9.76-2.5-4.35-5.15-13.56,5.28-26.38C41.81,33.73,49.38,6.11,49.45,5.83l.17-.64.65-.09A20.37,20.37,0,0,1,65.35,9.82c6,5.1,9.08,13.76,9.26,25.73L73.55,62.91A14.85,14.85,0,0,1,81.72,70a16.47,16.47,0,0,1-3.19,19.42A20.42,20.42,0,0,1,64.19,95Zm7.34-2h0a18.47,18.47,0,0,0,13-5.06,14.44,14.44,0,0,0,2.8-17c-3.2-6-10.25-8.42-18.85-6.47l-.44-1.95a24.16,24.16,0,0,1,10.91-.17l1-26.8c-.16-11.3-3-19.45-8.53-24.17A18.72,18.72,0,0,0,51.19,7c-1.29,4.42-9.12,29.56-25.66,49.88-7.17,8.81-9,17.37-5.1,24.12,3.74,6.49,11.73,9.62,17,8.79a29.87,29.87,0,0,0,8.89-3.15c5.12-2.5,9.55-4.66,17.63,1,.8.63,2,2.05,1.51,3.59A3.2,3.2,0,0,1,64.14,93Z"/></g></svg>