<?xml version="1.0" ?><svg id="Layer_1" style="enable-background:new 0 0 512 512;" version="1.1" viewBox="0 0 512 512" xml:space="preserve" xmlns="http://www.w3.org/2000/svg" xmlns:xlink="http://www.w3.org/1999/xlink"><g id="XMLID_32_"><rect height="44.2" id="XMLID_102_" width="6.7" x="341" y="143.6"/><rect height="44.2" id="XMLID_101_" width="6.7" x="166.1" y="228.4"/><rect height="44.2" id="XMLID_100_" width="6.7" x="179.5" y="228.4"/><rect height="44.2" id="XMLID_99_" width="6.7" x="192.9" y="228.4"/><rect height="44.2" id="XMLID_98_" width="6.7" x="206.4" y="228.4"/><rect height="39.7" id="XMLID_97_" width="6.7" x="219.8" y="233"/><rect height="44.2" id="XMLID_96_" width="6.7" x="167.2" y="58.8"/><rect height="44.2" id="XMLID_95_" width="6.7" x="178.8" y="58.8"/><rect height="44.2" id="XMLID_94_" width="6.7" x="190.5" y="58.8"/><rect height="44.2" id="XMLID_93_" width="6.7" x="202.1" y="58.8"/><rect height="44.2" id="XMLID_92_" width="6.7" x="213.8" y="58.8"/><rect height="6.7" id="XMLID_91_" transform="matrix(-0.2635 -0.9647 0.9647 -0.2635 216.3563 327.0636)" width="44.2" x="210.9" y="77.6"/><rect height="44.2" id="XMLID_90_" width="6.7" x="166.1" y="143.6"/><rect height="44.2" id="XMLID_89_" width="6.7" x="177.8" y="143.6"/><rect height="44.2" id="XMLID_88_" width="6.7" x="189.4" y="143.6"/><rect height="44.2" id="XMLID_87_" width="6.7" x="201.1" y="143.6"/><rect height="44.2" id="XMLID_86_" width="6.7" x="212.7" y="143.6"/><rect height="44.2" id="XMLID_85_" width="6.7" x="224.4" y="143.6"/><rect height="44.2" id="XMLID_84_" width="6.7" x="236" y="143.6"/><rect height="44.2" id="XMLID_83_" width="6.7" x="247.7" y="143.6"/><rect height="44.2" id="XMLID_82_" width="6.7" x="259.4" y="143.6"/><rect height="44.2" id="XMLID_81_" width="6.7" x="271" y="143.6"/><rect height="44.2" id="XMLID_80_" width="6.7" x="282.7" y="143.6"/><rect height="44.2" id="XMLID_79_" width="6.7" x="294.3" y="143.6"/><rect height="44.2" id="XMLID_78_" width="6.7" x="306" y="143.6"/><rect height="44.2" id="XMLID_77_" width="6.7" x="317.6" y="143.6"/><rect height="44.2" id="XMLID_76_" width="6.7" x="329.3" y="143.6"/><path d="M381.1,469.3V27.5L388.4,6H123.6l7.4,23.7v439.7l-9.9,23.5V506H391v-13.2L381.1,469.3z M362.5,452.5h-213   v-66.6h213V452.5z M362.5,368h-213v-66.6h213V368z M362.5,283.4h-213v-66.6h213V283.4z M362.5,198.9h-213v-66.6h213V198.9z    M362.5,114.3h-213V47.7h213V114.3z" id="XMLID_69_"/><path d="M356.1,54H155.9V108h200.3V54z M176,105.2h-11V56.7h11V105.2z M187.6,105.2h-11V56.7h11V105.2z    M199.3,105.2h-11V56.7h11V105.2z M211,105.2h-11V56.7h11V105.2z M234.1,105.8l-11.5-42.2v41.6h-11V56.7h11v2l9.3-2.5l12.8,46.8   L234.1,105.8z" id="XMLID_62_"/><path d="M356.1,138.6H155.9v53.9h200.3V138.6z M174.9,190h-11v-48.5h11V190z M186.6,190h-11v-48.5h11V190z    M198.2,190h-11v-48.5h11V190z M209.9,190h-11v-48.5h11V190z M221.6,190h-11v-48.5h11V190z M233.2,190h-11v-48.5h11V190z    M244.9,190h-11v-48.5h11V190z M256.5,190h-11v-48.5h11V190z M268.2,190h-11v-48.5h11V190z M279.8,190h-11v-48.5h11V190z    M291.5,190h-11v-48.5h11V190z M303.2,190h-11v-48.5h11V190z M314.8,190h-11v-48.5h11V190z M326.5,190h-11v-48.5h11V190z    M338.1,190h-11v-48.5h11V190z M349.8,190h-11v-48.5h11V190z" id="XMLID_44_"/><path d="M356.1,223.1H155.9v53.9h200.3V223.1z M174.9,274.7H164v-48.5h10.9V274.7z M188.4,274.7h-10.9v-48.5h10.9   V274.7z M201.8,274.7h-11v-48.5h11V274.7z M215.2,274.7h-10.9v-48.5h10.9V274.7z M228.6,274.7h-10.9v-43.9h10.9V274.7z M242,274.7   h-11v-34.4h11V274.7z" id="XMLID_36_"/><rect height="53.9" id="XMLID_35_" width="200.3" x="155.9" y="307.7"/><rect height="53.9" id="XMLID_34_" width="200.3" x="155.9" y="392.2"/><rect height="30.1" id="XMLID_33_" width="6.7" x="233.2" y="242.5"/></g></svg>