<?xml version="1.0" ?><svg viewBox="0 0 64 64" xmlns="http://www.w3.org/2000/svg"><path d="M29.96 21.91c.232-.038 4.148-10.65 4.148-10.956 0-.308-.737-.615-1.086-.384-.35.23-4.11 9.995-4.11 10.533 0 .576.814.845 1.047.807zm2.984-13.532c1.513.922 3.956.23 4.537-1.846.583-2.076-1.836-4.18-3.566-3.345-2.947 1.423-2.482 4.268-.97 5.19zm1.63-3.922c.877-.117 2.248.692 1.744 2.037s-1.706 1.615-2.676 1.038-1.085-2.805.93-3.074zm2.558 21.95c.737-.883 1.94-2.844 4.498-5.92 2.56-3.074 6.204-4.88 7.678-4.958 1.474-.077 1.94.884 1.94 2.153 0 1.27-1.707 3.192-1.98 3.076-.27-.115-.154-.538-.348-1.038-.194-.5-1.396-.846-2.172.27-.775 1.114.272 2.23 1.125 2.652.853.423 2.908.23 4.382-1.615 1.473-1.845 1.59-5.036.155-6.535-1.435-1.5-4.653-1.27-9.384 2.19-4.73 3.46-7.647 8.883-7.678 9.19-.077.768 1.047 1.422 1.784.537zm26.6-1.92c-1.007-1.654-2.456-1.345-3.566-1.04-1.396.386-2.133 2-1.55 3 .58 1 1.783 1.615 2.907 1.346 1.124-.27 3.218-1.654 2.21-3.307zm-1.666 2.075c-1.163.73-2.443.04-2.443-.883s.775-1.5 1.745-1.307c.646.128 1.86 1.46.698 2.19zm-12.448 4.69c-4.42.385-8.143 2.916-8.182 3.384-.04.46 1.124 1.307 1.667 1.115.543-.193 2.443-1.923 4.692-2.654 2.25-.73 3.917-.346 4.498 1.115.582 1.462-.233 2.77-1.474 2.77-1.242 0-1.707-1.04-1.9-1.193-.195-.154-1.63.654-1.59 1 .038.346.852 2.076 3.41 2.037 2.56-.038 3.724-2.422 3.724-3.883 0-1.46-.425-4.073-4.846-3.69zM21.156 14.03c.504-.385.543-1.04.35-1.308-.195-.27-1.087-.23-1.59-.46-.505-.232-.466-1.923.542-2.154 1.008-.23 1.86-.115 2.365 2.153.504 2.27-.66 4.69-.66 4.69-.232.77 1.397.924 1.746.73.348-.19 1.434-2.075 1.434-4.15s-.62-5.767-4.382-5.306c-3.76.46-3.916 3.42-3.18 4.652.737 1.23 2.87 1.537 3.374 1.153zm-1.396 4.573c-.97.577-17.953 36.175-18.768 38.02-.814 1.846-1.14 2.908-.93 3.115.503.5 1.628.23 3.1-.346s37.925-13.955 38.74-15.147c.813-1.192-.466-5.65-6.865-14.416S20.73 18.026 19.76 18.602zm-9.694 36.33c-.427.5-1.94 1-1.978.883-.04-.115.427-1.615.27-1.73-.154-.115-.775-.077-.93.115-.155.193-.465 1.962-.504 2.077-.04.115-.737.384-.776.27-.04-.116.582-2.23.427-2.346-.155-.114-.892-.037-.97.193-.077.23-.232 2.345-.426 2.46-.195.115-2.056.73-2.405.5-.226-.15 4.188-8.496 4.42-8.496.234 0 1.823.884 2.366 2.576.545 1.692.933 3 .506 3.5zm7.794-3.038c-.116.115-2.288.77-2.288.77s.737-2.154.582-2.27c-.155-.114-1.086-.114-1.125.078-.04.192-.583 2.5-.62 2.614-.04.115-.66.346-.66.23 0-.114.93-2.652.776-2.767-.155-.115-1.047.115-1.047.308s-.854 2.883-.932 3.037c-.078.154-1.24.846-1.318.577-.078-.27.27-2.037-.97-4.075-1.24-2.037-2.48-2.576-2.636-2.73-.274-.27 5.235-10.148 5.468-10.148.233 0 3.994 2.575 4.614 7.495.62 4.92.27 6.765.154 6.88zm6.786-2.845c-.233.154-1.474.538-1.474.538s.427-1.96.35-2.076c-.078-.115-1.01.23-1.087.346-.078.115-.078 1.922-.35 2.114-.27.192-.62.308-.62.308l.39-3s-1.048.232-1.048.347c0 .115-.155 2.806-.35 3-.193.19-1.395.768-1.473.653-.078-.115.814-5.305-.97-9.15-1.783-3.844-2.985-4.805-4.536-5.65-.204-.112 3.916-8.42 4.188-8.42.27 0 4.576 3.345 5.778 10.418 1.202 7.074 1.435 10.42 1.202 10.572zm4.847-1.806c-.233.192-.66.46-.66.308 0-.154.31-1.96.195-2s-.814.116-.853.27c-.04.154.077 1.922-.078 2-.155.076-.66.422-.66.153 0-.27.35-2.5.195-2.576-.155-.078-1.047-.155-1.047.114 0 .27-.04 2.845-.04 2.845s-.775.345-.775.23c0-.115-.194-8.112-2.055-12.725s-3.218-7.304-5.778-9.073c-.255-.176 2.482-6.305 2.753-6.343.27-.04 3.645 1.92 4.73 2.92 1.087 1 3.53 4.883 4.073 10.61.543 5.73.233 13.07 0 13.264zm8.454-9.38s1.59 3.344 1.86 4.228c.272.884.195 1.153.078 1.27-.116.114-.853.383-.853.19 0-.19.27-1.998.04-2.113-.234-.116-.893.037-.893.268 0 .23-.234 2.383-.234 2.383s-.737.347-.737.078.698-5.997.737-6.305zm-1.396 4.344c-.154 2.037-.077 2.383-.31 2.46-.232.077-1.046.46-1.046.27 0-.193.465-2.577.388-2.692-.078-.115-1.008-.038-1.008.192s-.194 2.614-.35 2.883c-.154.27-1.162.385-1.162.385s.465-2.576.27-2.69c-.193-.116-.968-.155-.968.076 0 .232-.388 3.192-.388 3.192s-1.435.73-1.474.615c-.04-.115.892-3.652.35-9.188-.544-5.537-1.436-9.69-1.94-11.11-.04-.11 4.033 3.69 5.39 5.496 1.357 1.807 2.172 3.498 2.172 3.498s.232 4.576.077 6.614zm19.273-16.762c-.35-.23-1.9-.308-6.243.807s-7.65 3.452-7.794 3.652c-.194.27-.116.73.388.615.504-.115 1.086-.46 5.273-2.345 4.188-1.884 8.22-1.653 8.53-1.69.31-.04.195-.808-.154-1.04zm-34.395-3.23c-.31 0-1.7 3.067-1.86 3.384-.08.154.736.73 1.007.692.27-.038 1.008-2.23 1.24-2.23s1.746 1.27 1.98 1.307c.232.037.503-.27.58-.808.077-.538-2.637-2.345-2.947-2.345z"/></svg>